<svg width="640" height="480" xmlns="http://www.w3.org/2000/svg" xmlns:svg="http://www.w3.org/2000/svg">
 <!-- Created with SVG-edit - http://svg-edit.googlecode.com/ -->
 <defs>
  <radialGradient spreadMethod="pad" id="svg_4">
   <stop offset="0" stop-color="#7f7f7f"/>
   <stop offset="1" stop-color="#808080"/>
  </radialGradient>
  <radialGradient x2="1" x1="1" spreadMethod="pad" id="svg_29">
   <stop offset="0" stop-color="#7f7f7f"/>
   <stop offset="1" stop-color="#808080"/>
  </radialGradient>
  <radialGradient x2="1" x1="1" spreadMethod="pad" id="svg_30">
   <stop offset="0" stop-color="#7f7f7f"/>
   <stop offset="1" stop-color="#808080"/>
  </radialGradient>
  <radialGradient x2="1" x1="1" spreadMethod="pad" id="svg_31">
   <stop offset="0" stop-color="#7f7f7f"/>
   <stop offset="1" stop-color="#808080"/>
  </radialGradient>
  <filter height="200%" width="200%" y="-50%" x="-50%" id="svg_28_blur">
   <feGaussianBlur stdDeviation="0.6" in="SourceGraphic"/>
  </filter>
  <filter height="200%" width="200%" y="-50%" x="-50%" id="svg_1_blur">
   <feGaussianBlur stdDeviation="4.1" in="SourceGraphic"/>
  </filter>
 </defs>
 <g>
  <title>Layer 1</title>
  <ellipse filter="url(#svg_1_blur)" ry="151" rx="144" id="svg_1" cy="222" cx="327" stroke-width="5" stroke="#000000" fill="#bfbfbf"/>
  <path transform="rotate(-13.940927505493164 223.93432617187494,196.99169921875) " d="m191,182c0.853333,0.001328 1.547836,-0.120438 2.666672,0.166672c0.710846,0.182404 1.659607,0.849747 2.343155,1.133331c0.768051,0.318634 1.30986,0.494247 2.533005,0.995499c0.647751,0.265457 1.65271,0.625061 2.43634,0.68367c0.996933,0.07457 1.773499,0.020828 2.673492,0.020828c0.863342,0 1.833084,-0.100281 2.757996,0.010666c0.92807,0.111328 1.555435,0.592621 2.567841,0.867828c0.701035,0.190567 1.672974,0.109665 2.505493,0.405502c0.706085,0.250916 1.627914,0.673294 2.616013,0.716003c0.899155,0.038864 1.699997,0 2.535995,0c1.021164,0 1.768494,0 2.763992,0c0.800003,0 1.799835,0 2.579178,0c0.999496,0 1.773499,0 2.673492,0c0.863342,0 1.863174,-0.058411 2.647339,0.352661c0.8479,0.444489 1.5,0.646667 2.371994,0.647339c1.097336,0.000839 1.848831,0 2.64534,0c0.996002,0 1.835999,0 2.797333,0c0.88533,0 1.77066,0 2.710663,0c0.690674,0 1.764008,0 2.574661,0c0.900009,0 1.856873,-0.162766 2.700012,0.221329c0.780014,0.355347 1.550323,0.761002 2.383987,1.062668c0.704636,0.254974 1.64003,0.556122 2.616013,0.716339c0.710907,0.116699 1.146561,0.98941 1.899994,1.666336c0.615112,0.552658 1.154297,1.249588 2,1.333328c0.753479,0.074615 1.925934,-0.282288 2.666656,0.166672c0.77182,0.467804 1.434631,0.785538 2.333344,0.833328c0.803375,0.042725 1.47168,0.629181 2.32132,0.878494c0.825684,0.242294 1.793335,0.121506 2.778687,0.121506c0.899994,0 1.699982,0 2.53598,0c1.016693,0 1.711334,-0.000092 2.738678,0c0.946838,0.000092 1.662903,-0.065155 2.625336,0.166672c0.787872,0.189774 1.411346,0.481873 0.610657,0.85466c-0.688202,0.320419 -0.27832,1.390961 -0.621338,2.332001c-0.27652,0.758606 -1.357758,0.685577 -2.010162,1.146667c-0.668854,0.472717 -1.506073,0.382111 -2.479156,0.520828c-1.010925,0.144119 -1.731323,0.616409 -2.666656,0.8125c-0.772369,0.161926 -1.572449,0.133682 -2.690338,0.16684c-0.72226,0.021423 -1.551819,0.426651 -2.243011,1.099838c-0.506561,0.493362 -1.28479,1.141983 -1.778656,1.999832c-0.4245,0.73732 -1.221344,0.900162 -2.121338,0.900162c-0.800003,0 -1.707993,0 -2.5,0c-0.858002,0 -1.824005,0 -2.447998,0c-1.184998,0 -1.933334,0 -2.898666,0c-0.839996,0 -1.835999,0 -2.632507,0c-0.751495,0 -1.848831,0 -2.825333,0c-0.862167,0 -1.716324,0 -2.695496,0c-0.789337,0 -1.520233,-0.086868 -2.520828,0.020828c-1.035339,0.11145 -1.725815,0.418472 -2.473831,0.626511c-1.030823,0.286682 -1.888,0.35199 -2.830673,0.352661c-0.690674,0.000488 -1.764008,0 -2.674667,0c-0.899994,0 -1.800003,0 -2.699997,0c-0.900009,0 -1.805435,-0.056595 -2.472,0.035995c-1.113037,0.154602 -1.822495,0.483627 -2.559998,0.680008c-0.947281,0.252228 -1.976608,0.159988 -2.867844,0.284164c-0.801865,0.111725 -1.277588,0.91655 -1.874832,1.425171c-0.614883,0.523636 -1.568161,0.574661 -2.286667,0.574661c-0.790497,0 -1.817169,0 -2.717834,0c-1.020828,0 -1.810165,0 -2.535492,0c-0.985336,0 -1.96933,0 -2.660004,0c-1.072662,0 -1.992004,0 -2.671997,0c-0.839996,0 -1.835999,0 -2.632507,0c-1.1875,0 -2,0 -2.842163,0c-0.853333,0 -1.793335,0 -2.678665,0c-0.800003,0 -1.804382,-0.377823 -2.642838,0.057159c-0.748611,0.388382 -1.243668,0.892212 -2.045166,1.02684c-1.003128,0.168503 -1.826599,0.443146 -2.713333,0.632004c-0.892914,0.19017 -1.783539,0.20993 -2.584335,0.33667c-1.058411,0.167511 -1.799088,0.684799 -2.783661,0.862c-0.742325,0.133606 -1.548004,0.084 -2.544006,0.085327l-0.839996,0l-0.961334,0" id="svg_3" stroke-linecap="null" stroke-linejoin="null" stroke-dasharray="null" stroke-width="5" stroke="#000000" fill="url(#svg_4)"/>
  <path id="svg_5" transform="rotate(2.3478264808654785 241.93432617187617,148.99169921875) " d="m209,134c0.85333,0.00133 1.54784,-0.12044 2.66667,0.16667c0.71085,0.18241 1.65961,0.84975 2.34316,1.13333c0.76805,0.31864 1.30986,0.49425 2.533,0.9955c0.64775,0.26546 1.65271,0.62506 2.43634,0.68367c0.99693,0.07457 1.7735,0.02083 2.67349,0.02083c0.86335,0 1.83309,-0.10028 2.758,0.01067c0.92807,0.11132 1.55543,0.59262 2.56784,0.86782c0.70103,0.19057 1.67297,0.10967 2.50549,0.40551c0.70609,0.25091 1.62792,0.67329 2.61602,0.716c0.89915,0.03886 1.69999,0 2.53599,0c1.02117,0 1.7685,0 2.76399,0c0.80001,0 1.79984,0 2.57918,0c0.9995,0 1.7735,0 2.67349,0c0.86335,0 1.86318,-0.05841 2.64734,0.35266c0.8479,0.44449 1.5,0.64667 2.372,0.64734c1.09733,0.00084 1.84883,0 2.64534,0c0.996,0 1.836,0 2.79733,0c0.88533,0 1.77066,0 2.71066,0c0.69068,0 1.76401,0 2.57466,0c0.90001,0 1.85688,-0.16277 2.70002,0.22133c0.78001,0.35535 1.55032,0.761 2.38398,1.06267c0.70464,0.25497 1.64003,0.55612 2.61602,0.71634c0.7109,0.11669 1.14656,0.98941 1.89999,1.66633c0.61511,0.55266 1.1543,1.24959 2,1.33333c0.75348,0.07462 1.92593,-0.28229 2.66666,0.16667c0.77182,0.46781 1.43463,0.78554 2.33334,0.83333c0.80338,0.04272 1.47168,0.62918 2.32132,0.87849c0.82568,0.2423 1.79333,0.12151 2.77869,0.12151c0.89999,0 1.69998,0 2.53598,0c1.01669,0 1.71133,-0.00009 2.73867,0c0.94684,0.00009 1.66291,-0.06516 2.62534,0.16667c0.78787,0.18978 1.41135,0.48187 0.61066,0.85466c-0.68821,0.32042 -0.27832,1.39096 -0.62134,2.332c-0.27652,0.75861 -1.35776,0.68558 -2.01016,1.14667c-0.66886,0.47272 -1.50608,0.38211 -2.47916,0.52083c-1.01093,0.14412 -1.73132,0.61641 -2.66666,0.8125c-0.77237,0.16192 -1.57245,0.13368 -2.69033,0.16684c-0.72226,0.02142 -1.55182,0.42665 -2.24302,1.09984c-0.50656,0.49336 -1.28479,1.14198 -1.77865,1.99983c-0.4245,0.73732 -1.22135,0.90016 -2.12134,0.90016c-0.8,0 -1.70799,0 -2.5,0c-0.858,0 -1.82401,0 -2.448,0c-1.185,0 -1.93333,0 -2.89866,0c-0.84,0 -1.836,0 -2.63251,0c-0.7515,0 -1.84883,0 -2.82533,0c-0.86217,0 -1.71633,0 -2.6955,0c-0.78934,0 -1.52023,-0.08687 -2.52083,0.02083c-1.03534,0.11145 -1.72581,0.41847 -2.47383,0.62651c-1.03082,0.28668 -1.888,0.35199 -2.83067,0.35266c-0.69068,0.00049 -1.76401,0 -2.67467,0c-0.89999,0 -1.8,0 -2.7,0c-0.90001,0 -1.80543,-0.05659 -2.472,0.036c-1.11303,0.1546 -1.82249,0.48362 -2.55999,0.68c-0.94729,0.25223 -1.97661,0.15999 -2.86785,0.28417c-0.80186,0.11172 -1.27759,0.91655 -1.87483,1.42517c-0.61488,0.52363 -1.56816,0.57466 -2.28667,0.57466c-0.79049,0 -1.81717,0 -2.71783,0c-1.02083,0 -1.81017,0 -2.53549,0c-0.98534,0 -1.96933,0 -2.66001,0c-1.07266,0 -1.992,0 -2.67199,0c-0.84,0 -1.836,0 -2.63251,0c-1.1875,0 -2,0 -2.84216,0c-0.85334,0 -1.79334,0 -2.67867,0c-0.8,0 -1.80438,-0.37782 -2.64284,0.05716c-0.74861,0.38838 -1.24367,0.89221 -2.04516,1.02684c-1.00313,0.1685 -1.8266,0.44315 -2.71334,0.632c-0.89291,0.19017 -1.78354,0.20993 -2.58433,0.33667c-1.05841,0.16751 -1.79909,0.6848 -2.78366,0.862c-0.74233,0.13361 -1.54801,0.084 -2.54401,0.08533l-0.84,0l-0.96133,0" stroke-linecap="null" stroke-linejoin="null" stroke-dasharray="null" stroke-width="5" stroke="#000000" fill="url(#svg_4)"/>
  <path id="svg_6" transform="rotate(-29.669626235961914 230.93432617187491,253.99169921875) " d="m198,239c0.85333,0.00133 1.54784,-0.12044 2.66667,0.16667c0.71085,0.18241 1.65961,0.84975 2.34316,1.13333c0.76805,0.31864 1.30986,0.49425 2.533,0.9955c0.64775,0.26546 1.65271,0.62506 2.43634,0.68367c0.99693,0.07457 1.7735,0.02083 2.67349,0.02083c0.86335,0 1.83309,-0.10028 2.758,0.01067c0.92807,0.11132 1.55543,0.59262 2.56784,0.86782c0.70103,0.19057 1.67297,0.10967 2.50549,0.40551c0.70609,0.25091 1.62792,0.67329 2.61602,0.716c0.89915,0.03886 1.69999,0 2.53599,0c1.02117,0 1.7685,0 2.76399,0c0.80001,0 1.79984,0 2.57918,0c0.9995,0 1.7735,0 2.67349,0c0.86335,0 1.86318,-0.05841 2.64734,0.35266c0.8479,0.44449 1.5,0.64667 2.372,0.64734c1.09733,0.00084 1.84883,0 2.64534,0c0.996,0 1.836,0 2.79733,0c0.88533,0 1.77066,0 2.71066,0c0.69068,0 1.76401,0 2.57466,0c0.90001,0 1.85688,-0.16277 2.70002,0.22133c0.78001,0.35535 1.55032,0.761 2.38398,1.06267c0.70464,0.25497 1.64003,0.55612 2.61602,0.71634c0.7109,0.11669 1.14656,0.98941 1.89999,1.66633c0.61511,0.55266 1.1543,1.24959 2,1.33333c0.75348,0.07462 1.92593,-0.28229 2.66666,0.16667c0.77182,0.46781 1.43463,0.78554 2.33334,0.83333c0.80338,0.04272 1.47168,0.62918 2.32132,0.87849c0.82568,0.2423 1.79333,0.12151 2.77869,0.12151c0.89999,0 1.69998,0 2.53598,0c1.01669,0 1.71133,-0.00009 2.73867,0c0.94684,0.00009 1.66291,-0.06516 2.62534,0.16667c0.78787,0.18978 1.41135,0.48187 0.61066,0.85466c-0.68821,0.32042 -0.27832,1.39096 -0.62134,2.332c-0.27652,0.75861 -1.35776,0.68558 -2.01016,1.14667c-0.66886,0.47272 -1.50608,0.38211 -2.47916,0.52083c-1.01093,0.14412 -1.73132,0.61641 -2.66666,0.8125c-0.77237,0.16192 -1.57245,0.13368 -2.69033,0.16684c-0.72226,0.02142 -1.55182,0.42665 -2.24302,1.09984c-0.50656,0.49336 -1.28479,1.14198 -1.77865,1.99983c-0.4245,0.73732 -1.22135,0.90016 -2.12134,0.90016c-0.8,0 -1.70799,0 -2.5,0c-0.858,0 -1.82401,0 -2.448,0c-1.185,0 -1.93333,0 -2.89866,0c-0.84,0 -1.836,0 -2.63251,0c-0.7515,0 -1.84883,0 -2.82533,0c-0.86217,0 -1.71633,0 -2.6955,0c-0.78934,0 -1.52023,-0.08687 -2.52083,0.02083c-1.03534,0.11145 -1.72581,0.41847 -2.47383,0.62651c-1.03082,0.28668 -1.888,0.35199 -2.83067,0.35266c-0.69068,0.00049 -1.76401,0 -2.67467,0c-0.89999,0 -1.8,0 -2.7,0c-0.90001,0 -1.80543,-0.05659 -2.472,0.036c-1.11303,0.1546 -1.82249,0.48362 -2.55999,0.68c-0.94729,0.25223 -1.97661,0.15999 -2.86785,0.28417c-0.80186,0.11172 -1.27759,0.91655 -1.87483,1.42517c-0.61488,0.52363 -1.56816,0.57466 -2.28667,0.57466c-0.79049,0 -1.81717,0 -2.71783,0c-1.02083,0 -1.81017,0 -2.53549,0c-0.98534,0 -1.96933,0 -2.66001,0c-1.07266,0 -1.992,0 -2.67199,0c-0.84,0 -1.836,0 -2.63251,0c-1.1875,0 -2,0 -2.84216,0c-0.85334,0 -1.79334,0 -2.67867,0c-0.8,0 -1.80438,-0.37782 -2.64284,0.05716c-0.74861,0.38838 -1.24367,0.89221 -2.04516,1.02684c-1.00313,0.1685 -1.8266,0.44315 -2.71334,0.632c-0.89291,0.19017 -1.78354,0.20993 -2.58433,0.33667c-1.05841,0.16751 -1.79909,0.6848 -2.78366,0.862c-0.74233,0.13361 -1.54801,0.084 -2.54401,0.08533l-0.84,0l-0.96133,0" stroke-linecap="null" stroke-linejoin="null" stroke-dasharray="null" stroke-width="5" stroke="#000000" fill="url(#svg_4)"/>
  <path d="m188,192c0,1.113327 -0.285339,1.369339 -1.100006,1.878494l-0.899994,0.121506l-0.833328,-0.166672l-0.388,-0.711655" id="svg_10" stroke-linecap="null" stroke-linejoin="null" stroke-dasharray="null" stroke-width="5" stroke="#000000" fill="none"/>
  <path d="m203,261c-1.020828,0 -1.9785,0 -2.79866,0c-0.901337,0 -1.903915,0.398193 -2.765335,-0.036011c-0.698883,-0.352264 -1.352264,-0.809692 -1.436005,0.036011c-0.078827,0.796082 -0.287949,1.488495 -0.878662,2.221497c-0.520859,0.646332 -0.569489,1.59671 -1.146667,2.342499c-0.484131,0.625549 -0.973999,1.237335 -0.97467,2.136017c-0.000671,0.899994 0.052902,1.834717 -0.352661,2.599976c-0.448303,0.845917 -0.674423,1.70047 -0.647339,2.5c0.028595,0.844299 0.762421,1.25946 1.399994,2.05069c0.442764,0.549469 1.265076,1.058655 2,1.585327c0.784149,0.561951 1.251343,1.361755 2.100006,1.543152c0.880356,0.188171 1.822891,0.221069 2.698669,0.019501c0.805756,-0.185455 0.875031,-1.170441 0.780502,-1.998657c-0.113251,-0.992249 -0.800369,-1.445038 -1.543167,-2.02533c-0.587296,-0.458832 -0.867661,-1.370819 -1.352005,-2.17334c-0.447021,-0.740662 -1.464142,-0.554016 -2.031326,-1.158508c-0.621017,-0.661865 -0.962769,-1.630371 -1.048172,-2.399994c-0.09877,-0.890076 -0.018829,-1.790863 -0.42984,-2.606842c-0.388809,-0.771912 -1.027969,-1.909943 -0.353165,-2.514496c0.660416,-0.591675 1.570358,0.116425 1.778671,0.978333c0.20282,0.839142 1.383255,0.505035 1.914505,1.185516c0.565231,0.72403 -0.163773,1.664703 -0.562012,2.414673c-0.446289,0.840485 -0.352661,0.199982 -0.352661,-0.700012l0,-0.799988" id="svg_14" stroke-linecap="null" stroke-linejoin="null" stroke-dasharray="null" stroke-width="5" stroke="#7f7f7f" fill="#7f7f7f"/>
  <path id="svg_15" d="m196,196c-1.02083,0 -1.9785,0 -2.79866,0c-0.90134,0 -1.90392,0.39819 -2.76534,-0.03601c-0.69888,-0.35227 -1.35226,-0.80969 -1.436,0.03601c-0.07883,0.79608 -0.28795,1.48849 -0.87866,2.2215c-0.52086,0.64633 -0.56949,1.59671 -1.14667,2.3425c-0.48413,0.62554 -0.974,1.23733 -0.97467,2.13601c-0.00067,0.9 0.0529,1.83472 -0.35266,2.59998c-0.4483,0.84591 -0.67442,1.70047 -0.64734,2.5c0.02859,0.8443 0.76242,1.25946 1.39999,2.05069c0.44277,0.54947 1.26508,1.05865 2,1.58532c0.78415,0.56196 1.25135,1.36176 2.10001,1.54316c0.88036,0.18817 1.82289,0.22107 2.69867,0.0195c0.80576,-0.18546 0.87503,-1.17044 0.7805,-1.99866c-0.11325,-0.99225 -0.80037,-1.44504 -1.54317,-2.02533c-0.58729,-0.45883 -0.86766,-1.37082 -1.352,-2.17334c-0.44702,-0.74066 -1.46414,-0.55402 -2.03133,-1.15851c-0.62101,-0.66186 -0.96277,-1.63037 -1.04817,-2.39999c-0.09877,-0.89008 -0.01883,-1.79086 -0.42984,-2.60684c-0.38881,-0.77192 -1.02797,-1.90995 -0.35316,-2.5145c0.66041,-0.59167 1.57035,0.11643 1.77867,0.97833c0.20282,0.83914 1.38325,0.50504 1.9145,1.18552c0.56523,0.72403 -0.16377,1.6647 -0.56201,2.41467c-0.44629,0.84049 -0.35266,0.19998 -0.35266,-0.70001l0,-0.79999" stroke-linecap="null" stroke-linejoin="null" stroke-dasharray="null" stroke-width="5" stroke="#7f7f7f" fill="#7f7f7f"/>
  <path stroke="#000000" d="m201,255c-0.56684,0.15362 -0.76524,0.63697 -0.7881,1.19966c-0.02091,0.51444 -0.2075,1.02066 -0.69944,1.33359c-0.6039,0.38416 -0.95029,0.64825 -1.57462,0.87043c-0.49405,0.1758 -1.31315,0.51705 -1.88074,0.7974c-0.5704,0.28173 2.92257,-0.41011 -1.78627,0.89964c-4.70883,1.30974 -1.31328,0.51558 -1.78692,0.6885c-0.67259,0.24554 -1.39241,0.21082 -2.15492,0.21162l-0.72898,0" id="svg_17" stroke-linecap="null" stroke-linejoin="null" stroke-dasharray="null" stroke-width="5" fill="none"/>
  <g filter="url(#svg_28_blur)" stroke="null" opacity="0.5" id="svg_28">
   <ellipse stroke="#000000" id="svg_18" ry="151" rx="142.958124" cy="220.4751" cx="325.038782" stroke-width="5" fill="#bfbfbf"/>
   <path stroke="#000000" id="svg_19" d="m462.677404,188.851269c-0.822521,-0.204295 -1.462572,-0.4898 -2.60926,-0.480697c-0.728548,0.005778 -1.802313,0.424885 -2.528755,0.53543c-0.816245,0.124215 -1.380293,0.164118 -2.678704,0.355923c-0.687614,0.101584 -1.741924,0.208475 -2.510987,0.076566c-0.9784,-0.167808 -1.713789,-0.407058 -2.58095,-0.623884c-0.831857,-0.207999 -1.742239,-0.538957 -2.659947,-0.654105c-0.920842,-0.115551 -1.640434,0.200428 -2.681735,0.22361c-0.721038,0.016064 -1.638175,-0.296615 -2.511085,-0.210061c-0.740346,0.073407 -1.729574,0.261257 -2.691846,0.064655c-0.875646,-0.178909 -1.637979,-0.409564 -2.443483,-0.610974c-0.98392,-0.246022 -1.70399,-0.426069 -2.663167,-0.665904c-0.770828,-0.19274 -1.734186,-0.43362 -2.485098,-0.62138c-0.963041,-0.240801 -1.708807,-0.427274 -2.575968,-0.644101c-0.831857,-0.207999 -1.781245,-0.505569 -2.63512,-0.295529c-0.923283,0.22712 -1.599953,0.26624 -2.440305,0.056807c-1.057503,-0.263555 -1.781389,-0.445423 -2.548845,-0.637319c-0.959668,-0.239958 -1.769027,-0.442332 -2.69529,-0.673937c-0.853035,-0.213295 -1.706071,-0.42659 -2.611782,-0.653056c-0.665486,-0.1664 -1.699663,-0.424988 -2.480743,-0.620291c-0.86718,-0.216832 -1.750215,-0.605338 -2.654467,-0.435682c-0.836549,0.156962 -1.675783,0.365079 -2.551186,0.457017c-0.73992,0.077697 -1.713218,0.144621 -2.691927,0.064985c-0.712878,-0.058018 -1.341382,0.684036 -2.229233,1.159499c-0.724857,0.388188 -1.411069,0.934687 -2.245949,0.812214c-0.743842,-0.109107 -1.788159,-0.737973 -2.609251,-0.480695c-0.855556,0.268083 -1.570182,0.416769 -2.44754,0.246632c-0.784292,-0.15209 -1.568483,0.256088 -2.44676,0.293358c-0.853514,0.036239 -1.756976,-0.314121 -2.706393,-0.551515c-0.867161,-0.216827 -1.637969,-0.409562 -2.443474,-0.610972c-0.979604,-0.244942 -1.648883,-0.412383 -2.63877,-0.659804c-0.912323,-0.228027 -1.586666,-0.463871 -2.569438,-0.47074c-0.804522,-0.005625 -1.47512,0.127652 -0.792801,0.682365c0.586468,0.476786 -0.06452,1.417042 0.040911,2.413004c0.08499,0.802884 1.144256,0.992499 1.662576,1.597185c0.531397,0.619939 1.35975,0.733702 2.264155,1.102771c0.939583,0.38343 1.520734,1.015365 2.375055,1.431023c0.705468,0.343231 1.483118,0.508579 2.552289,0.810084c0.690791,0.194797 1.393168,0.787949 1.898142,1.607835c0.370081,0.600869 0.964787,1.417876 1.235453,2.369439c0.232664,0.817873 0.9615,1.167895 1.82866,1.384722c0.770818,0.192737 1.645687,0.411491 2.408806,0.602303c0.826702,0.206711 1.757475,0.439443 2.358703,0.589776c1.141774,0.285492 1.862807,0.465781 2.792924,0.698349c0.809359,0.202374 1.769027,0.442332 2.536483,0.634228c0.724087,0.181052 1.781389,0.445423 2.722269,0.680682c0.83072,0.207715 1.653723,0.413501 2.597175,0.649404c0.760547,0.190169 1.485553,0.281945 2.423894,0.627538c0.970917,0.357603 1.562768,0.821928 2.233743,1.204054c0.924651,0.526582 1.734942,0.796482 2.643066,1.024241c0.665369,0.166875 1.699663,0.424988 2.577105,0.644385c0.867161,0.216827 1.734341,0.433658 2.601511,0.650488c0.86718,0.216832 1.753108,0.380044 2.373217,0.630497c1.035452,0.418199 1.640339,0.908452 2.303967,1.276727c0.852407,0.473023 1.866242,0.631485 2.695271,0.966726c0.745889,0.301614 1.011768,1.197351 1.465571,1.834878c0.46721,0.656344 1.373511,0.935536 2.065812,1.108641c0.761655,0.190446 1.750884,0.437795 2.61869,0.654783c0.983593,0.24594 1.74414,0.436109 2.443002,0.610854c0.949397,0.237389 1.897494,0.474454 2.562979,0.640853c1.033532,0.258427 1.919337,0.479915 2.574522,0.64374c0.809359,0.202374 1.769027,0.442332 2.536483,0.634228c1.144183,0.286094 1.927045,0.481843 2.738485,0.684737c0.822212,0.205588 1.727923,0.432054 2.580959,0.645349c0.770818,0.192737 1.828927,0.068023 2.532764,0.692193c0.628411,0.557296 0.984907,1.165556 1.72496,1.489317c0.926237,0.405212 1.653978,0.870164 2.463203,1.267086c0.814854,0.39969 1.66827,0.633439 2.409536,0.949374c0.979737,0.41757 1.569674,1.098068 2.475947,1.507253c0.683295,0.308518 1.471451,0.454474 2.430802,0.695723l0.809359,0.202374l0.926263,0.231605" stroke-linecap="null" stroke-linejoin="null" stroke-dasharray="null" stroke-width="5" fill="url(#svg_31)"/>
   <path stroke="#000000" id="svg_20" d="m441.547873,131.138503c-0.846391,0.036286 -1.540249,-0.05693 -2.638375,0.275772c-0.697696,0.211377 -1.61166,0.917024 -2.278162,1.228368c-0.748894,0.349836 -1.27919,0.547495 -2.472076,1.098431c-0.631727,0.291773 -1.613954,0.69224 -2.388878,0.782903c-0.985853,0.115347 -1.758343,0.093465 -2.651071,0.130334c-0.856384,0.035368 -1.822378,-0.025102 -2.735313,0.123645c-0.916054,0.149246 -1.518778,0.655842 -2.511827,0.972285c-0.687623,0.219128 -1.655011,0.178113 -2.468782,0.507809c-0.690188,0.279625 -1.587403,0.739414 -2.565793,0.822566c-0.890315,0.075662 -1.686273,0.069642 -2.515528,0.103889c-1.012931,0.041833 -1.754231,0.072448 -2.741688,0.113229c-0.793555,0.032773 -1.785318,0.073732 -2.55837,0.105658c-0.991435,0.040945 -1.75919,0.072653 -2.651919,0.109522c-0.856384,0.035368 -1.850522,0.017966 -2.611637,0.460814c-0.822981,0.478852 -1.461597,0.707576 -2.326534,0.743968c-1.088442,0.045792 -1.833912,0.075739 -2.623996,0.108369c-0.987964,0.040802 -1.821186,0.075213 -2.774759,0.114595c-0.878187,0.036268 -1.756373,0.072537 -2.688789,0.111044c-0.685107,0.028294 -1.749777,0.072264 -2.553886,0.105473c-0.892748,0.03687 -1.848517,-0.086565 -2.669233,0.331753c-0.759265,0.387005 -1.506862,0.823871 -2.321526,1.15944c-0.688585,0.283622 -1.60418,0.622838 -2.565779,0.822906c-0.700418,0.145715 -1.09707,1.035549 -1.816891,1.742766c-0.587671,0.577395 -1.094166,1.295828 -1.929637,1.414142c-0.744366,0.105424 -1.921871,-0.203156 -2.638365,0.275772c-0.746567,0.499036 -1.391107,0.843651 -2.280622,0.928218c-0.79516,0.075595 -1.434217,0.68894 -2.266862,0.972847c-0.809164,0.275921 -1.773919,0.194873 -2.751328,0.235239c-0.892728,0.036869 -1.686263,0.069641 -2.515518,0.103889c-1.008487,0.04165 -1.697526,0.070016 -2.716573,0.112192c-0.939197,0.038878 -1.652143,0.003017 -2.597379,0.274079c-0.773795,0.221896 -1.380365,0.539283 -0.570974,0.878959c0.695688,0.291958 0.332644,1.378391 0.711168,2.304589c0.305141,0.746645 1.374687,0.629383 2.040575,1.06336c0.682688,0.444923 1.509468,0.320091 2.480338,0.418832c1.008634,0.102585 1.74242,0.544968 2.678188,0.702576c0.772723,0.130143 1.565199,0.069151 2.675408,0.056488c0.717303,-0.008186 1.556651,0.36272 2.269652,1.00703c0.522537,0.472194 1.320867,1.088389 1.845631,1.925287c0.451061,0.719311 1.248104,0.849371 2.140833,0.812502c0.793545,-0.032773 1.694209,-0.069969 2.479828,-0.102415c0.851077,-0.035149 1.809293,-0.074722 2.428248,-0.100284c1.175439,-0.048545 1.917731,-0.0792 2.875272,-0.118746c0.833222,-0.034411 1.821186,-0.075213 2.611269,-0.107843c0.745436,-0.030786 1.833912,-0.075739 2.802533,-0.115742c0.855213,-0.03532 1.702482,-0.070311 2.673751,-0.110423c0.782971,-0.032336 1.504431,-0.149075 2.501338,-0.082455c1.031519,0.068943 1.728904,0.347419 2.479349,0.524642c1.034162,0.244211 1.887082,0.274351 2.822173,0.236403c0.685127,-0.027805 1.749777,-0.072264 2.653089,-0.10957c0.892728,-0.036869 1.785476,-0.073739 2.678215,-0.110608c0.892748,-0.03687 1.788561,-0.130503 2.453518,-0.065298c1.110337,0.108874 1.827454,0.408554 2.56699,0.574557c0.949905,0.213212 1.967168,0.078882 2.856267,0.166448c0.799934,0.078777 1.304557,0.863443 1.917664,1.34717c0.631215,0.498001 1.578878,0.509937 2.291591,0.480502c0.784112,-0.032383 1.802508,-0.074442 2.695901,-0.111338c1.012593,-0.041819 1.795564,-0.074155 2.515032,-0.103868c0.97739,-0.040365 1.95344,-0.080675 2.638547,-0.10897c1.064005,-0.043942 1.975927,-0.081604 2.650431,-0.10946c0.833222,-0.034411 1.821186,-0.075213 2.611269,-0.107843c1.177919,-0.048647 1.983863,-0.081932 2.819228,-0.116431c0.846455,-0.034958 1.77887,-0.073466 2.657057,-0.109734c0.793545,-0.032773 1.774455,-0.451421 2.623841,-0.051154c0.758365,0.357387 1.269921,0.840513 2.070419,0.942196c1.001889,0.127264 1.829885,0.36795 2.71715,0.520315c0.89344,0.153432 1.777687,0.13669 2.57717,0.230518c1.056683,0.124011 1.812424,0.610524 2.796257,0.747241c0.741774,0.103088 1.538936,0.020514 2.526954,-0.018959l0.833222,-0.034411l0.953573,-0.039382" stroke-linecap="null" stroke-linejoin="null" stroke-dasharray="null" stroke-width="5" fill="url(#svg_30)"/>
   <path stroke="#000000" id="svg_21" d="m456.185961,255.74303c-0.736742,-0.421241 -1.275992,-0.870827 -2.382194,-1.175178c-0.702824,-0.193374 -1.849173,-0.083161 -2.578164,-0.175116c-0.819111,-0.103319 -1.372778,-0.218927 -2.67419,-0.388846c-0.689205,-0.089978 -1.732805,-0.274977 -2.437572,-0.611947c-0.896604,-0.428685 -1.54007,-0.85978 -2.316408,-1.305273c-0.744732,-0.427357 -1.531958,-0.994509 -2.384315,-1.355934c-0.855265,-0.362668 -1.632949,-0.255011 -2.641499,-0.517032c-0.698363,-0.181423 -1.49701,-0.732825 -2.360529,-0.887868c-0.73238,-0.131499 -1.735122,-0.2208 -2.608453,-0.672797c-0.79471,-0.411312 -1.466424,-0.841492 -2.187564,-1.25531c-0.880869,-0.505477 -1.525521,-0.875404 -2.384238,-1.36817c-0.690095,-0.396003 -1.552555,-0.890917 -2.22482,-1.276689c-0.862176,-0.494751 -1.529834,-0.877879 -2.306172,-1.323373c-0.744732,-0.427357 -1.578489,-0.973023 -2.456918,-1.004004c-0.949835,-0.033494 -1.611696,-0.180609 -2.364218,-0.611666c-0.946978,-0.542446 -1.594814,-0.915167 -2.28189,-1.309438c-0.859157,-0.493018 -1.583747,-0.908817 -2.412998,-1.384673c-0.763692,-0.438237 -1.527384,-0.876473 -2.338235,-1.341772c-0.595786,-0.341885 -1.521648,-0.873182 -2.220921,-1.274452c-0.776355,-0.445503 -1.521771,-1.060582 -2.437822,-1.144192c-0.847467,-0.077342 -1.711286,-0.106177 -2.578653,-0.256718c-0.733124,-0.127254 -1.687989,-0.328602 -2.60862,-0.672501c-0.670571,-0.250503 -1.475244,0.292147 -2.457808,0.507373c-0.802185,0.175725 -1.609777,0.514385 -2.380435,0.168526c-0.686627,-0.308134 -1.522599,-1.198612 -2.382185,-1.175173c-0.895667,0.024428 -1.62355,-0.027588 -2.422269,-0.430923c-0.713995,-0.360552 -1.578672,-0.181788 -2.434092,-0.385734c-0.831308,-0.198177 -1.606652,-0.782116 -2.456631,-1.269867c-0.776338,-0.445493 -1.466415,-0.841487 -2.187555,-1.255305c-0.877004,-0.50326 -1.476162,-0.847183 -2.362397,-1.355636c-0.816795,-0.468606 -1.402418,-0.879754 -2.346542,-1.15472c-0.772884,-0.225095 -1.45424,-0.279922 -0.946754,0.440333c0.436195,0.619074 -0.44346,1.346365 -0.610011,2.333823c-0.134265,0.796029 0.834308,1.267785 1.170486,1.99136c0.344661,0.741828 1.11138,1.07752 1.882597,1.679726c0.801213,0.625633 1.190535,1.392595 1.901005,2.025968c0.586682,0.523013 1.290714,0.894514 2.238711,1.476675c0.612501,0.376129 1.128948,1.138862 1.394366,2.065935c0.194517,0.679424 0.547081,1.628228 0.551527,2.618069c0.003845,0.85078 0.611192,1.38671 1.38753,1.832203c0.690086,0.395998 1.473325,0.845452 2.156518,1.237495c0.740117,0.424708 1.573404,0.902882 2.111663,1.211755c1.02219,0.586573 1.667705,0.956995 2.500406,1.434831c0.72459,0.415798 1.583747,0.908817 2.270823,1.303087c0.648249,0.371991 1.594814,0.915167 2.437151,1.398533c0.743714,0.426773 1.480519,0.84958 2.325158,1.334267c0.680891,0.390722 1.354051,0.67703 2.16425,1.265905c0.838324,0.60933 1.283053,1.217879 1.826067,1.768912c0.748314,0.759349 1.455629,1.240398 2.268454,1.7076c0.595545,0.342311 1.521648,0.873182 2.30719,1.323957c0.776338,0.445493 1.552693,0.890997 2.32904,1.336495c0.776355,0.445503 1.585187,0.844514 2.114674,1.254916c0.884135,0.685279 1.334434,1.322344 1.874103,1.858038c0.693189,0.688068 1.626417,1.117433 2.334183,1.666494c0.636789,0.493992 0.651651,1.428789 0.91689,2.166359c0.27308,0.759343 1.070309,1.275555 1.690101,1.631216c0.681883,0.391291 1.567504,0.899496 2.34442,1.345321c0.880575,0.505309 1.561466,0.896031 2.187132,1.255063c0.849962,0.487741 1.698759,0.974815 2.294544,1.3167c0.925284,0.530965 1.718314,0.986036 2.304878,1.32263c0.72459,0.415798 1.583747,0.908817 2.270823,1.303087c1.024346,0.58781 1.725215,0.989996 2.451668,1.406864c0.736097,0.422402 1.546948,0.8877 2.310641,1.325937c0.690086,0.395998 1.742139,0.564879 2.251644,1.357867c0.4549,0.708022 0.634352,1.39085 1.259564,1.904566c0.782504,0.642956 1.357867,1.289214 2.029972,1.892239c0.676778,0.607226 1.435332,1.065256 2.063817,1.571769c0.830675,0.669459 1.215386,1.485565 1.977604,2.126893c0.574681,0.483545 1.294046,0.839249 2.152549,1.333423l0.72459,0.415798l0.82925,0.475857" stroke-linecap="null" stroke-linejoin="null" stroke-dasharray="null" stroke-width="5" fill="url(#svg_29)"/>
   <path stroke="#000000" id="svg_22" d="m463.033083,190.4751c0,1.11333 0.283275,1.36934 1.092051,1.87849l0.893478,0.12151l0.827301,-0.16667l0.385193,-0.71166" stroke-linecap="null" stroke-linejoin="null" stroke-dasharray="null" stroke-width="5" fill="none"/>
   <path stroke="#7f7f7f" id="svg_23" d="m448.141612,259.4751c1.013444,0 1.964185,0 2.778411,0c0.894819,0 1.890145,0.39819 2.745332,-0.03601c0.693823,-0.35227 1.342476,-0.80969 1.42561,0.03601c0.07826,0.79608 0.285867,1.48849 0.872303,2.2215c0.517091,0.64633 0.56537,1.59671 1.138374,2.3425c0.480627,0.62554 0.966953,1.23733 0.967618,2.13601c0.000665,0.9 -0.052517,1.83472 0.350108,2.59998c0.445056,0.84591 0.66954,1.70047 0.642656,2.5c-0.028383,0.8443 -0.756904,1.25946 -1.389861,2.05069c-0.439566,0.54947 -1.255927,1.05865 -1.98553,1.58532c-0.778476,0.56196 -1.242296,1.36176 -2.084816,1.54316c-0.87399,0.18817 -1.809701,0.22107 -2.679144,0.0195c-0.79993,-0.18546 -0.868699,-1.17044 -0.774853,-1.99866c0.112431,-0.99225 0.794579,-1.44504 1.532005,-2.02533c0.583041,-0.45883 0.861382,-1.37082 1.342218,-2.17334c0.443786,-0.74066 1.453547,-0.55402 2.016633,-1.15851c0.616517,-0.66186 0.955804,-1.63037 1.040586,-2.39999c0.098055,-0.89008 0.018694,-1.79086 0.42673,-2.60684c0.385997,-0.77192 1.020532,-1.90995 0.350605,-2.5145c-0.655632,-0.59167 -1.558988,0.11643 -1.765801,0.97833c-0.201353,0.83914 -1.373242,0.50504 -1.900648,1.18552c-0.56114,0.72403 0.162585,1.6647 0.557944,2.41467c0.443061,0.84049 0.350108,0.19998 0.350108,-0.70001l0,-0.79999" stroke-linecap="null" stroke-linejoin="null" stroke-dasharray="null" stroke-width="5" fill="#7f7f7f"/>
   <path stroke="#7f7f7f" id="svg_24" d="m455.090965,194.4751c1.013444,0 1.964185,0 2.778411,0c0.894819,0 1.890145,0.39819 2.745332,-0.03601c0.693823,-0.35227 1.342476,-0.80969 1.42561,0.03601c0.07826,0.79608 0.285867,1.48849 0.872303,2.2215c0.517091,0.64633 0.56537,1.59671 1.138374,2.3425c0.480627,0.62554 0.966953,1.23733 0.967618,2.13601c0.000665,0.9 -0.052517,1.83472 0.350108,2.59998c0.445056,0.84591 0.66954,1.70047 0.642656,2.5c-0.028383,0.8443 -0.756904,1.25946 -1.389861,2.05069c-0.439566,0.54947 -1.255927,1.05865 -1.98553,1.58532c-0.778476,0.56196 -1.242296,1.36176 -2.084816,1.54316c-0.87399,0.18817 -1.809701,0.22107 -2.679144,0.0195c-0.79993,-0.18546 -0.868699,-1.17044 -0.774853,-1.99866c0.112431,-0.99225 0.794579,-1.44504 1.532005,-2.02533c0.583041,-0.45883 0.861382,-1.37082 1.342218,-2.17334c0.443786,-0.74066 1.453547,-0.55402 2.016633,-1.15851c0.616517,-0.66186 0.955804,-1.63037 1.040586,-2.39999c0.098055,-0.89008 0.018694,-1.79086 0.42673,-2.60684c0.385997,-0.77192 1.020532,-1.90995 0.350605,-2.5145c-0.655632,-0.59167 -1.558988,0.11643 -1.765801,0.97833c-0.201353,0.83914 -1.373242,0.50504 -1.900648,1.18552c-0.56114,0.72403 0.162585,1.6647 0.557944,2.41467c0.443061,0.84049 0.350108,0.19998 0.350108,-0.70001l0,-0.79999" stroke-linecap="null" stroke-linejoin="null" stroke-dasharray="null" stroke-width="5" fill="#7f7f7f"/>
   <path stroke="#000000" id="svg_25" d="m457.968212,277.867038c0.139735,-0.948621 0.573878,-1.578064 1.097007,-2.295541c0.496866,-0.681434 1.377138,-1.150688 1.269902,-1.919419c-0.124156,-0.88993 -0.678997,-1.818115 -0.383613,-2.73575c0.239649,-0.744488 0.342365,-1.443424 0.703386,-2.285704c0.343918,-0.80238 0.993863,-1.370325 1.573358,-1.906973l-0.086888,-0.940478" stroke-linecap="null" stroke-linejoin="null" stroke-dasharray="null" stroke-width="5" fill="none"/>
   <path stroke="#000000" id="svg_26" d="m450.127141,253.4751c0.562739,0.15362 0.759703,0.63697 0.782398,1.19966c0.020759,0.51444 0.205999,1.02066 0.694379,1.33359c0.599531,0.38416 0.943414,0.64825 1.563227,0.87043c0.490475,0.1758 1.303649,0.51705 1.867132,0.7974c0.566273,0.28173 -2.901424,-0.41011 1.773346,0.89964c4.67476,1.30974 1.303778,0.51558 1.773991,0.6885c0.667724,0.24554 1.382336,0.21082 2.139329,0.21162l0.723706,0" stroke-linecap="null" stroke-linejoin="null" stroke-dasharray="null" stroke-width="5" fill="none"/>
  </g>
  <ellipse stroke="#000000" ry="8.666667" rx="10.333335" id="svg_35" cy="153.999997" cx="262.33334" stroke-linecap="null" stroke-linejoin="null" stroke-dasharray="null" stroke-width="5" fill="#000000"/>
  <ellipse id="svg_36" stroke="#000000" ry="8.666667" rx="10.333335" cy="148.666664" cx="380.333337" stroke-linecap="null" stroke-linejoin="null" stroke-dasharray="null" stroke-width="5" fill="#000000"/>
  <ellipse stroke="#000000" id="svg_37" ry="11.333334" rx="17.666673" cy="172" cx="325.000006" stroke-linecap="null" stroke-linejoin="null" stroke-dasharray="null" stroke-width="5" fill="#000000"/>
  <path id="svg_43" d="m325,181c0,0 1,19 1,19c0,0 -18,23 -25,15" stroke-linecap="null" stroke-linejoin="null" stroke-dasharray="null" stroke-width="5" stroke="#000000" fill="#000000"/>
  <path stroke="#000000" id="svg_44" d="m326.16,181c0,0 -1.16,19 -1.16,19c0,0 20.879999,23 28.999999,15" stroke-linecap="null" stroke-linejoin="null" stroke-dasharray="null" stroke-width="5" fill="#000000"/>
 </g>
</svg>